<?xml version="1.0" encoding="utf-8"?>
<!-- Generator: Adobe Illustrator 19.0.0, SVG Export Plug-In . SVG Version: 6.00 Build 0)  -->
<svg version="1.1" id="Layer_1" xmlns="http://www.w3.org/2000/svg" xmlns:xlink="http://www.w3.org/1999/xlink" x="0px" y="0px"
	 viewBox="0 0 960 560" style="enable-background:new 0 0 960 560;" xml:space="preserve">
<style type="text/css">
	.st0{fill:#79BD9A;}
	.st1{fill:#A8DBA8;}
	.st2{filter:url(#Adobe_OpacityMaskFilter);}
	.st3{fill:url(#XMLID_331_);}
	.st4{mask:url(#XMLID_302_);}
	.st5{fill:#736357;}
	.st6{fill:#54D3BD;}
</style>
<g id="XMLID_272_">
	<g id="XMLID_273_">
		<g id="XMLID_274_">
			<path id="XMLID_275_" class="st0" d="M396.3,232.2l3.6,4.6l0.4,0.5l0.5,0.7c2.6-13.7,8.4-26.3,16.7-36.9
				c-2.8,5.3-3.9,10.8-3.5,16.3c-5.6,6.5-9.9,13.7-12.6,21.3l1.7,2.1c2.7-6.9,6.6-13.4,11.6-19.5c1.8,7.8,6.9,15.3,15.3,21.8
				c-3.6,6.8-6.4,13.9-8.5,20.9l4.7,6c1.9-7.8,4.8-15.8,8.4-23.6c9.4,6,20.8,10,33,12.1c-1.7,11.1-3,22.2-3.6,32.5
				c-0.9-0.2-1.8-0.3-2.7-0.5c0.9,0.3,1.8,0.7,2.7,1c2.5,0.9,5,1.8,7.5,2.7c2.9,1,5.9,2,8.8,2.9c12.1,0.6,24.4-0.4,36-3
				c0.2,3.9,0.3,7.7,0.3,11.3c0,0.1,0,0.1,0,0.2c2.5,0.4,4.9,0.7,7.4,1c0-1,0.1-2,0.1-3.1c0-3.6-0.1-7.4-0.4-11.3
				c7.6-2.2,14.8-5.1,21.4-8.8c5.5-3.1,10.3-6.5,14.2-10.2c0.6,3.7,0.9,7.4,0.9,11.1c0,5.8-0.8,11.1-2.3,15.9
				c-2.9,2.7-6.1,5.2-9.8,7.5c0.7,0,1.5,0,2.2,0c0.5,0,1-0.1,1.4-0.1c1.8-1.4,3.5-2.8,5.1-4.2c-0.6,1.4-1.2,2.7-1.8,4c0,0,0,0,0.1,0
				c0.5,0,1-0.1,1.4-0.2c2.2-0.2,4.3-0.5,6.3-0.8c10.5-14.9,16.7-33,16.7-52.6c0-50.8-41.6-92.1-92.7-92.1
				c-17.4,0-33.6,4.8-47.6,13.1l1.8,0.1l-13.8,8.4C411.9,195.8,401,212.8,396.3,232.2z M421.7,196.1c2-2.2,4-4.2,6.2-6.2
				c5.5-3.6,11.9-6.1,19-7.5c-3.5,4.3-5.1,9.1-4.7,13.9c-9.8,4.8-18.4,10.9-25.4,18C416.4,208.1,418,201.9,421.7,196.1z
				 M432.2,239.1c-8.1-6.2-13-13.5-14.7-21c6.9-7.5,15.4-14.2,25.1-19.5c1.1,4.8,4.2,9.4,9.4,13.4
				C444.3,220.3,437.6,229.5,432.2,239.1z M468.4,253.8c-11.7-2-22.7-5.9-31.7-11.6c5-9.9,11.2-19.5,18.2-28.2
				c5.7,3.7,12.8,6.1,20.2,7.4C472.5,231.7,470.2,242.7,468.4,253.8z M478.9,221.9c7.6,0.8,15.5,0.5,22.9-1.2
				c3.3,10.2,6.3,21.1,8.6,32c-11.6,2.6-24,3.2-35.9,1.9C475.7,243.5,477.2,232.4,478.9,221.9z M471.5,292.1
				c0.5-10.4,1.3-21.5,2.5-32.7c12.4,1.4,25.3,0.7,37.4-1.9c2.2,11,3.8,22,4.6,32.3C501.6,293,486.3,293.7,471.5,292.1z
				 M505.5,219.8c3.9-1.1,7.5-2.6,10.9-4.5c2.8-1.6,5.2-3.3,7.2-5.2c8.2,7.8,15.3,16.7,21.1,26c-3.1,2.9-6.9,5.7-11.3,8.1
				c-5.2,2.9-11,5.3-17.1,7C513.3,240.5,509.7,229.8,505.5,219.8z M551.5,196.5c2.2,3.5,3.6,7,4.3,10.7
				c-6.9-6.4-15.4-11.7-25.1-15.4c-0.9-4.8-3.8-9.4-8.8-13.5c4,0.4,7.7,1.3,11.1,2.6C539.9,185.2,546.1,190.5,551.5,196.5z
				 M556.3,211c0.3,7.5-2.4,15-8.3,21.7c-6.1-9-13.6-17.4-22.3-24.7c3.7-4.3,5.5-9.1,5.3-13.8C540.8,198.4,549.4,204.2,556.3,211z
				 M544.3,279.2c-6.5,3.6-13.6,6.5-21.1,8.7c-1-10.3-3-21.2-5.7-32c6.3-1.8,12.3-4.3,17.8-7.3c4.6-2.6,8.5-5.4,11.8-8.5
				c5.4,9.5,9.3,19.3,11.3,29.1C554.5,272.8,549.8,276.2,544.3,279.2z M550.5,236.5c6.1-7,9-14.8,8.6-22.6
				c5.2,5.8,9.2,12.2,11.9,19.1c0.7,2.8,1.3,5.6,1.7,8.5c-0.5,8.1-3.9,16.1-10.2,23.4C560.3,255.3,556.2,245.7,550.5,236.5z
				 M564,293.2c-0.7,1-1.5,1.9-2.3,2.9c1.6-4.9,2.4-10.2,2.4-16c0-3.6-0.3-7.3-0.9-11c5.8-6.7,9.1-13.9,10.1-21.4
				c0.2,2.1,0.3,4.1,0.3,6.2C573.6,268,570.1,281.4,564,293.2z M567.2,221.6c-2.3-4.2-5.2-8.1-8.6-11.7c-0.5-2.9-1.6-5.8-3-8.6
				C560.4,207.5,564.3,214.3,567.2,221.6z M489.8,183.8c0.1,0.1,0.2,0.1,0.2,0.2c10.3-4.3,19.9-6.3,28.6-6c4.5,3.7,7.1,7.9,7.9,12.2
				c-10.8-3.6-22.9-5.3-35.7-4.9c0,0.1,0,0.2,0,0.2c12.9,0.3,25.1,2.7,35.9,6.9c0.2,4.3-1.4,8.6-4.8,12.5
				c-9.6-7.5-20.3-13.8-31.6-18.1c-0.1,0.1-0.1,0.1-0.2,0.2c10.7,4.9,20.9,11.7,29.9,19.8c-1.8,1.7-4,3.3-6.5,4.7
				c-3,1.7-6.3,3-9.9,4c-4.6-10.4-9.8-19.9-15.3-27.6c-0.1,0-0.2,0.1-0.4,0.1c4.4,8,8.6,17.7,12.3,28.4c-6.7,1.5-13.8,1.8-20.7,1.1
				c1.9-11,4-21,6.3-29.4c-0.1,0-0.2,0-0.4-0.1c-3.4,8.2-6.5,18.1-9.4,28.9c-6.7-1.1-13.1-3.4-18.3-6.7c7.8-9,16.5-16.9,25.7-23
				c0,0-0.1,0-0.1-0.1c0,0-0.1-0.1-0.2-0.1c-10,5.5-19.5,12.8-28,21.4c-4.7-3.6-7.5-7.8-8.5-12.1c10.8-5.3,22.8-9,35.6-10.5
				c0-0.1,0-0.2,0-0.2c-12.9,0.9-25,3.9-35.9,8.5c-0.4-4.3,1.1-8.6,4.3-12.6c9.7-1.3,20.6-0.5,32.1,2.7c0.1-0.1,0.1-0.1,0.2-0.2
				c-10.9-3.8-21.3-5.2-30.5-4.5c1.9-1.9,4.3-3.7,7.1-5.2c2.8-1.5,5.7-2.8,8.9-3.8c4.9,1.7,10.4,5.8,16.2,12.5
				c0.1,0,0.2-0.1,0.4-0.1c-4.7-7-9.2-11.4-13.2-13.3c6.6-1.6,13.8-2.1,20.7-1.4c-1.6,2.3-3.4,7.2-5.3,14.6c0.1,0,0.3,0,0.4,0.1
				c3-7.3,5.9-12,8.5-14.2c7.4,1.1,14.3,3.5,19.8,7.2c1,0,2.1,0,3.1,0c-6.1-4.1-13.8-6.8-21.9-8c0,0,0.1,0,0.1,0
				c11,1.4,21.4,4.7,30.8,9.8C517.5,174.7,504.3,176.5,489.8,183.8z M480.1,167.6c-3.3,0.3-6.6,0.8-9.7,1.5
				c-0.2-0.1-0.4-0.1-0.7-0.2C473.1,168.3,476.6,167.9,480.1,167.6z M465.3,170c0.5,0.1,0.9,0.1,1.4,0.2c-3.5,1.1-6.8,2.5-9.8,4.2
				c-3.1,1.7-5.7,3.7-7.9,5.8c-5.4,0.8-10.4,2.3-14.8,4.6C443.3,177.9,453.9,172.8,465.3,170z"/>
			<path id="XMLID_292_" class="st0" d="M515.6,335.4c2.5-2.4,4.6-6.2,6-11.4c-2.1-0.3-4.3-0.7-6.4-1c-2-0.3-3.9-0.7-5.9-1.1
				c-12.3,2.1-25.2,2.4-37.8,1.1c-0.2-3.2-0.4-6.9-0.4-11c-2.6-0.8-5.1-1.7-7.7-2.6c0,4.7,0.3,8.9,0.6,12.6
				c-14.4-2.4-27.9-7.2-38.9-14.2c-1.2-4.6-1.9-9.8-1.9-15.6c-0.9-0.4-1.8-0.9-2.6-1.4l-2.9-0.3c0.2,4.9,0.8,9.4,2,13.4
				c-4.4-3.4-8.1-7.1-11-11c-0.6-1.1-1.1-2.3-1.7-3.5l-0.7-0.1l-0.6-0.1l-5.1-0.5c13.9,33.5,47.1,57.1,85.8,57.1
				c21.7,0,41.6-7.4,57.4-19.9c-2.9-0.1-5.8-0.3-8.7-0.6C529.1,329.6,522.6,332.9,515.6,335.4z M515.1,323.6
				c-1.2,6.5-3.1,11.1-5.6,13.6c-11.3,2.5-23.4,3.1-35,1.8c-1.2-2.3-2.2-6.8-2.8-13.2C486.2,327.4,501.2,326.7,515.1,323.6z
				 M464.4,324.8c0.9,6.5,2.3,11,4.2,13.4c-2.4-0.4-4.9-0.9-7.2-1.5c-11-3.3-21.1-8.7-29.8-15.7c-2.2-2.9-4.1-6.3-5.4-10.2
				C437,317.7,450.3,322.4,464.4,324.8z M412,298.8c2.5,2.9,5.3,5.6,8.7,8.2c1.1,2.9,2.5,5.5,4.1,7.9
				C419.9,310.1,415.6,304.7,412,298.8z"/>
		</g>
		<g id="XMLID_297_">
			<path id="XMLID_298_" class="st1" d="M600.9,264.6l3.1-5.4l4.1-7.3l-27.9-17.7c0,0,0,0,0,0c3.2,6.8,5.4,14.7,6.9,22.2
				c0,0,0,0,0,0c0,0,0,0,0,0c2.9,14.1,3.4,26.6,3.4,26.6l5.2-9.2c4.3,15.7-2.4,28.4-19.4,34.8c-2.4,0.9-5,1.6-7.7,2.3
				c-3.6,0.8-7.3,1.5-11.1,2.1c-2.2,0.3-4.4,0.6-6.7,0.8c-0.1,0-0.2,0-0.3,0c-0.5,0.1-1,0.1-1.5,0.1c-2.7,0.2-5.5,0.4-8.4,0.5
				c-1.9,0.1-3.7,0.1-5.7,0.1c-3.8,0-7.6-0.2-11.6-0.5c-2.3-0.2-4.7-0.4-7.1-0.7c-14.3-1.7-29.4-5.3-45.1-11
				c-2.5-0.9-5.1-1.9-7.6-2.9c-4.3-1.7-8.7-3.6-13.1-5.7l-10.2,0.5c7.5,3.7,15.3,7,23.2,10c2.6,1,5.1,1.9,7.7,2.8
				c14.9,5.1,30.1,8.9,44.8,11.3c2.3,0.4,4.6,0.7,6.8,1c1.8,0.2,3.6,0.4,5.4,0.6c4.5,0.5,9,0.8,13.4,1c2.8,0.1,5.6,0.2,8.3,0.2
				c10.6,0,20.4-1,29.1-3.1c3-0.7,5.9-1.6,8.5-2.6C612.4,306.2,615.9,286.7,600.9,264.6z"/>
			<path id="XMLID_299_" class="st1" d="M403.4,283.6l1.2,0.1l3.9,0.4l9.2,0.7l4.5,0.2h0l1.2,0.3l8.2,0.9l-1.4-1.8l-2.4-3l-3.4-4.2
				l-5-6.3l-0.8-1l-17.6-22.3l-0.3-0.4l-1.3-1.6l-0.2-0.2l-0.2-0.2l-2.1-2.7l-1.5,11L395,260v0c-1-0.2-0.7-0.4-0.9-0.6
				c-1.5-1.2-3.1-2.4-4.5-3.6c-31.3-27.2-35.3-54.1-5.8-65c2.4-0.9,4.9-1.6,7.7-2.3c6.4-1.5,13.7-2.3,21.5-2.5
				c2.5-1.8,6.1-4.3,10.2-6.8c-15.7-1.2-30-0.6-41.9,2.2c-3,0.7-5.9,1.6-8.6,2.5c-35.6,13.2-27.8,47.2,15.4,80c1.7,1.3,4,2.5,5,3.8
				v0l-0.7,6.1l-1.2,8.5l7.4,0.7L403.4,283.6L403.4,283.6z"/>
		</g>
	</g>
	<defs>
		<filter id="Adobe_OpacityMaskFilter" filterUnits="userSpaceOnUse" x="350.1" y="348.3" width="259.7" height="184.2">
			<feColorMatrix  type="matrix" values="1 0 0 0 0  0 1 0 0 0  0 0 1 0 0  0 0 0 1 0"/>
		</filter>
	</defs>
	<mask maskUnits="userSpaceOnUse" x="350.1" y="348.3" width="259.7" height="184.2" id="XMLID_302_">
		<g id="XMLID_329_" class="st2">
			<linearGradient id="XMLID_331_" gradientUnits="userSpaceOnUse" x1="481.3284" y1="540.8712" x2="481.3284" y2="348.2904">
				<stop  offset="0.5323" style="stop-color:#000000"/>
				<stop  offset="0.6619" style="stop-color:#070707"/>
				<stop  offset="0.8436" style="stop-color:#191919"/>
				<stop  offset="1" style="stop-color:#2E2E2E"/>
			</linearGradient>
			<rect id="XMLID_330_" x="336.5" y="348.3" class="st3" width="289.6" height="192.6"/>
		</g>
	</mask>
	<g id="XMLID_300_" class="st4">
		<g id="XMLID_303_">
			<path id="XMLID_304_" class="st5" d="M426.8,510.8l13.8,8.4l-1.8,0.1c13.9,8.3,30.2,13.1,47.6,13.1c51.1,0,92.7-41.3,92.7-92.1
				c0-19.5-6.2-37.6-16.7-52.6c-2-0.3-4.1-0.6-6.3-0.8c-0.5,0-0.9-0.1-1.4-0.2c0,0,0,0-0.1,0c0.7,1.3,1.3,2.6,1.8,4
				c-1.6-1.5-3.3-2.8-5.1-4.2c-0.5,0-1-0.1-1.4-0.1c-0.7,0-1.5,0-2.2,0c3.7,2.4,7,4.9,9.8,7.5c1.5,4.8,2.3,10.1,2.3,15.9
				c0,3.6-0.3,7.3-0.9,11.1c-3.9-3.7-8.7-7.1-14.2-10.2c-6.5-3.7-13.8-6.6-21.4-8.8c0.3-3.9,0.4-7.7,0.4-11.3c0-1.1,0-2.1-0.1-3.1
				c-2.4,0.3-4.9,0.6-7.4,1c0,0.1,0,0.1,0,0.2c0,3.6-0.1,7.4-0.3,11.3c-11.6-2.6-23.9-3.6-36-3c-2.9,0.9-5.9,1.9-8.8,2.9
				c-2.5,0.9-5,1.8-7.5,2.7c-0.9,0.3-1.8,0.7-2.7,1c0.9-0.2,1.8-0.4,2.7-0.5c0.7,10.4,1.9,21.4,3.6,32.5c-12.2,2.1-23.7,6.1-33,12.1
				c-3.6-7.8-6.5-15.8-8.4-23.6l-4.7,6c2.1,7,4.9,14,8.5,20.9c-8.4,6.5-13.5,14.1-15.3,21.8c-5-6-8.9-12.6-11.6-19.5l-1.7,2.1
				c2.7,7.7,7,14.9,12.6,21.3c-0.5,5.5,0.7,11,3.5,16.3c-8.3-10.6-14.1-23.2-16.7-36.9l-0.5,0.7l-0.4,0.5l-3.6,4.6
				C401,481.4,411.9,498.4,426.8,510.8z M416.9,480c6.9,7.1,15.6,13.3,25.4,18c-0.4,4.8,1.2,9.6,4.7,13.9c-7.1-1.4-13.5-3.9-19-7.5
				c-2.2-2-4.3-4-6.2-6.2C418,492.4,416.4,486.2,416.9,480z M452,482.2c-5.2,4-8.3,8.6-9.4,13.4c-9.7-5.3-18.3-11.9-25.1-19.5
				c1.7-7.5,6.6-14.7,14.7-21C437.6,464.8,444.3,474,452,482.2z M475,472.8c-7.5,1.3-14.5,3.7-20.2,7.4c-7-8.7-13.2-18.3-18.2-28.2
				c9-5.8,20-9.6,31.7-11.6C470.2,451.5,472.5,462.5,475,472.8z M474.5,439.6c11.9-1.3,24.4-0.7,35.9,1.9c-2.4,11-5.3,21.9-8.6,32
				c-7.4-1.6-15.3-2-22.9-1.2C477.2,461.9,475.7,450.7,474.5,439.6z M515.9,404.5c-0.8,10.3-2.4,21.3-4.6,32.3
				c-12-2.7-25-3.3-37.4-2c-1.2-11.2-2-22.3-2.5-32.7C486.3,400.5,501.6,401.3,515.9,404.5z M516.2,443c6.1,1.8,11.9,4.1,17.1,7
				c4.4,2.5,8.2,5.2,11.3,8.1c-5.8,9.3-12.9,18.2-21.1,26c-2-1.9-4.4-3.6-7.2-5.2c-3.3-1.9-7-3.4-10.9-4.5
				C509.7,464.5,513.3,453.8,516.2,443z M533.1,513.4c-3.4,1.3-7.1,2.2-11.1,2.6c4.9-4,7.9-8.7,8.8-13.5c9.7-3.8,18.3-9,25.1-15.4
				c-0.7,3.6-2.1,7.2-4.3,10.7C546.1,503.8,539.9,509.1,533.1,513.4z M531,500.1c0.2-4.8-1.6-9.5-5.3-13.8
				c8.6-7.3,16.2-15.8,22.3-24.7c5.8,6.7,8.6,14.2,8.3,21.7C549.4,490.1,540.8,495.8,531,500.1z M558.4,425.1
				c-2,9.7-5.9,19.6-11.3,29.1c-3.3-3.1-7.2-5.9-11.8-8.5c-5.5-3.1-11.5-5.5-17.8-7.3c2.7-10.9,4.7-21.8,5.7-32
				c7.5,2.2,14.7,5.1,21.1,8.7C549.8,418.1,554.5,421.5,558.4,425.1z M562.4,429.3c6.3,7.3,9.7,15.3,10.2,23.4
				c-0.4,2.9-1,5.7-1.7,8.5c-2.7,6.9-6.7,13.3-11.9,19.1c0.4-7.8-2.5-15.6-8.6-22.6C556.2,448.6,560.3,438.9,562.4,429.3z
				 M573.6,440.4c0,2.1-0.1,4.2-0.3,6.2c-0.9-7.4-4.3-14.7-10.1-21.4c0.6-3.7,0.9-7.4,0.9-11c0-5.8-0.9-11.2-2.4-16
				c0.8,0.9,1.6,1.9,2.3,2.9C570.1,412.9,573.6,426.2,573.6,440.4z M555.6,492.9c1.5-2.8,2.5-5.7,3-8.6c3.4-3.6,6.3-7.5,8.6-11.7
				C564.3,479.9,560.4,486.7,555.6,492.9z M528,516.4c-9.4,5.1-19.8,8.5-30.8,9.8c0,0-0.1,0-0.1,0c8.1-1.2,15.8-3.9,21.9-8
				c-1,0.1-2,0.1-3.1,0c-5.5,3.7-12.5,6.1-19.8,7.2c-2.6-2.2-5.4-6.9-8.5-14.2c-0.1,0-0.3,0-0.4,0.1c1.9,7.4,3.7,12.2,5.3,14.6
				c-6.9,0.7-14,0.2-20.7-1.4c4-2,8.5-6.4,13.2-13.3c-0.1,0-0.2-0.1-0.4-0.1c-5.8,6.7-11.3,10.8-16.2,12.5c-3.2-1-6.2-2.2-8.9-3.8
				c-2.8-1.6-5.2-3.3-7.1-5.2c9.2,0.7,19.6-0.7,30.5-4.5c-0.1-0.1-0.1-0.1-0.2-0.2c-11.5,3.2-22.4,4-32.1,2.7
				c-3.2-3.9-4.6-8.2-4.3-12.6c10.9,4.7,23,7.7,35.9,8.5c0-0.1,0-0.2,0-0.2c-12.8-1.6-24.8-5.3-35.6-10.5c1-4.3,3.8-8.5,8.5-12.1
				c8.5,8.5,18,15.9,28,21.4c0.1,0,0.1-0.1,0.2-0.1c0,0,0.1,0,0.1-0.1c-9.2-6-17.9-13.9-25.7-23c5.2-3.3,11.5-5.5,18.3-6.7
				c2.9,10.8,6,20.7,9.4,28.9c0.1,0,0.3,0,0.4-0.1c-2.2-8.3-4.4-18.4-6.3-29.4c6.9-0.8,14-0.4,20.7,1.1
				c-3.7,10.7-7.9,20.4-12.3,28.4c0.1,0,0.2,0.1,0.4,0.1c5.5-7.7,10.7-17.2,15.3-27.6c3.5,1,6.8,2.4,9.9,4c2.5,1.4,4.7,3,6.5,4.7
				c-9.1,8.1-19.2,14.9-29.9,19.8c0.1,0.1,0.1,0.1,0.2,0.2c11.4-4.3,22.1-10.5,31.6-18.1c3.4,3.9,5,8.2,4.8,12.5
				c-10.9,4.2-23,6.6-35.9,6.9c0,0.1,0,0.2,0,0.2c12.8,0.4,24.9-1.3,35.7-4.9c-0.8,4.3-3.4,8.5-7.9,12.2c-8.6,0.3-18.3-1.7-28.6-6
				c-0.1,0.1-0.1,0.1-0.2,0.2C504.3,517.8,517.5,519.5,528,516.4z M469.7,525.3c0.2-0.1,0.4-0.1,0.7-0.2c3.2,0.8,6.4,1.2,9.7,1.5
				C476.6,526.4,473.1,525.9,469.7,525.3z M434.1,509.5c4.4,2.3,9.4,3.8,14.8,4.6c2.1,2.1,4.7,4,7.9,5.8c3,1.7,6.4,3.1,9.8,4.2
				c-0.5,0.1-0.9,0.2-1.4,0.2C453.9,521.4,443.3,516.3,434.1,509.5z"/>
			<path id="XMLID_321_" class="st0" d="M535.2,368.7c2.9-0.3,5.8-0.4,8.7-0.6c-15.8-12.4-35.8-19.9-57.4-19.9
				c-38.7,0-71.9,23.6-85.8,57.1l5.1-0.5l0.6-0.1l0.7-0.1c0.5-1.2,1.1-2.3,1.7-3.5c2.9-3.8,6.5-7.5,11-11c-1.2,4-1.8,8.5-2,13.4
				l2.9-0.3c0.9-0.5,1.7-0.9,2.6-1.4c0-5.8,0.6-11,1.9-15.6c11.1-7,24.6-11.8,38.9-14.2c-0.4,3.7-0.6,7.9-0.6,12.6
				c2.6-0.9,5.1-1.8,7.7-2.6c0-4.1,0.2-7.7,0.4-11c12.5-1.4,25.4-1,37.8,1.1c2-0.4,4-0.7,5.9-1.1c2.1-0.4,4.3-0.7,6.4-1
				c-1.4-5.2-3.5-9-6-11.4C522.6,361.3,529.1,364.6,535.2,368.7z M471.8,368.4c0.6-6.4,1.5-10.9,2.8-13.2c11.6-1.3,23.7-0.7,35,1.8
				c2.5,2.5,4.4,7.1,5.6,13.6C501.2,367.6,486.2,366.8,471.8,368.4z M426.1,383.5c1.4-3.9,3.2-7.3,5.4-10.2
				c8.7-7,18.8-12.4,29.8-15.7c2.4-0.6,4.8-1.1,7.2-1.5c-1.9,2.4-3.3,6.9-4.2,13.4C450.3,371.8,437,376.5,426.1,383.5z M424.8,379.3
				c-1.6,2.4-3,5-4.1,7.9c-3.4,2.6-6.3,5.4-8.7,8.2C415.6,389.5,419.9,384.1,424.8,379.3z"/>
		</g>
		<g id="XMLID_326_">
			<path id="XMLID_327_" class="st1" d="M600.9,429.7l3.1,5.4l4.1,7.3L580.2,460c0,0,0,0,0,0c3.2-6.8,5.4-14.7,6.9-22.2c0,0,0,0,0,0
				c0,0,0,0,0,0c2.9-14.1,3.4-26.6,3.4-26.6l5.2,9.2c4.3-15.7-2.4-28.4-19.4-34.8c-2.4-0.9-5-1.6-7.7-2.3c-3.6-0.8-7.3-1.5-11.1-2.1
				c-2.2-0.3-4.4-0.6-6.7-0.8c-0.1,0-0.2,0-0.3,0c-0.5-0.1-1-0.1-1.5-0.1c-2.7-0.2-5.5-0.4-8.4-0.5c-1.9-0.1-3.7-0.1-5.7-0.1
				c-3.8,0-7.6,0.2-11.6,0.5c-2.3,0.2-4.7,0.4-7.1,0.7c-14.3,1.7-29.4,5.3-45.1,11c-2.5,0.9-5.1,1.9-7.6,2.9
				c-4.3,1.7-8.7,3.6-13.1,5.7l-10.2-0.5c7.5-3.7,15.3-7,23.2-10c2.6-1,5.1-1.9,7.7-2.8c14.9-5.1,30.1-8.9,44.8-11.3
				c2.3-0.4,4.6-0.7,6.8-1c1.8-0.2,3.6-0.4,5.4-0.6c4.5-0.5,9-0.8,13.4-1c2.8-0.1,5.6-0.2,8.3-0.2c10.6,0,20.4,1,29.1,3.1
				c3,0.7,5.9,1.6,8.5,2.6C612.4,388.1,615.9,407.6,600.9,429.7z"/>
			<path id="XMLID_328_" class="st6" d="M403.4,410.7l1.2-0.1l3.9-0.4l9.2-0.8l4.5-0.4h0l1.2-0.2l8.2-0.8l-1.4,1.8l-2.4,3l-3.4,4.3
				l-5,6.3l-0.8,1l-17.6,22.3L401,447l-1.3,1.6l-0.2,0.2l-0.2,0.2l-2.1,2.7l-1.5-11l-0.8-6.4v0c-1,0.2-0.7,0.4-0.9,0.6
				c-1.5,1.2-3.1,2.4-4.5,3.6c-31.3,27.2-35.3,54.1-5.8,65c2.4,0.9,4.9,1.6,7.7,2.3c6.4,1.5,13.7,2.3,21.5,2.5
				c2.5,1.8,6.1,4.3,10.2,6.8c-15.7,1.2-30,0.6-41.9-2.2c-3-0.7-5.9-1.6-8.6-2.5c-35.6-13.2-27.8-47.2,15.4-80c1.7-1.3,4-2.5,5-3.8
				v0l-0.7-6.1l-1.2-8.5l7.4-0.7L403.4,410.7L403.4,410.7z"/>
		</g>
	</g>
</g>
</svg>
